<?xml version="1.0" encoding="UTF-8"?>
<svg version="1.1" xmlns="http://www.w3.org/2000/svg" width="100" height="100">
<path d="M0 0 C1.94712891 -0.0299707 1.94712891 -0.0299707 3.93359375 -0.06054688 C12.79432857 -0.05607627 21.50920104 0.44834924 28.484375 6.4765625 C36.74340259 21.38214086 41.1159152 35.48668704 40.875 52.4375 C40.86176697 53.46843781 40.86176697 53.46843781 40.8482666 54.52020264 C40.63138503 65.93111497 40.63138503 65.93111497 38.125 68.4375 C35.41577199 68.63602102 32.83196821 68.71589477 30.125 68.6875 C29.01898438 68.69910156 29.01898438 68.69910156 27.890625 68.7109375 C22.3783196 68.6908196 22.3783196 68.6908196 20.125 66.4375 C20.125 64.4575 20.125 62.4775 20.125 60.4375 C6.925 60.4375 -6.275 60.4375 -19.875 60.4375 C-19.875 62.4175 -19.875 64.3975 -19.875 66.4375 C-22.43448999 68.99698999 -24.14707195 68.69818731 -27.640625 68.7109375 C-28.37796875 68.70320313 -29.1153125 68.69546875 -29.875 68.6875 C-30.61234375 68.69523437 -31.3496875 68.70296875 -32.109375 68.7109375 C-37.6216804 68.6908196 -37.6216804 68.6908196 -39.875 66.4375 C-40.57629887 61.84772274 -40.61624807 57.200024 -40.6875 52.5625 C-40.69856781 51.87731293 -40.70963562 51.19212585 -40.72103882 50.48617554 C-40.82270701 35.31953125 -36.97567151 20.44295823 -28.875 7.4375 C-20.45484631 -0.26853832 -10.93935172 -0.05939431 0 0 Z M-23.875 10.4375 C-25.31256757 12.32725902 -25.31256757 12.32725902 -26.125 14.375 C-26.434375 15.07109375 -26.74375 15.7671875 -27.0625 16.484375 C-27.330625 17.12890625 -27.59875 17.7734375 -27.875 18.4375 C-28.2875 19.324375 -28.7 20.21125 -29.125 21.125 C-29.9539278 23.68086071 -30.0275865 25.76723633 -29.875 28.4375 C-24.24668792 30.82289994 -19.00204808 30.72742039 -13 30.703125 C-11.95730957 30.70503845 -10.91461914 30.7069519 -9.84033203 30.70892334 C-7.6415991 30.71028089 -5.44285804 30.70661457 -3.24414062 30.69824219 C0.11346511 30.68753678 3.47053582 30.6981523 6.828125 30.7109375 C8.96875118 30.70961583 11.10937702 30.70705328 13.25 30.703125 C14.25015137 30.70717346 15.25030273 30.71122192 16.28076172 30.71539307 C21.29439723 30.68181003 25.42888942 30.42781286 30.125 28.4375 C29.66197986 21.64653793 27.74442234 15.22857575 24.125 9.4375 C13.68720945 0.92353751 -13.75775219 2.26701124 -23.875 10.4375 Z M-30.875 40.4375 C-30.83719702 42.80983611 -30.83719702 42.80983611 -29.875 45.4375 C-26.56006986 48.3577956 -24.54077972 49.37092203 -20.125 49.8125 C-16.79225994 49.76902308 -16.79225994 49.76902308 -14.875 47.4375 C-14.29154524 44.48003508 -14.29154524 44.48003508 -14.875 41.4375 C-17.71850082 38.77171798 -20.22311622 38.24346314 -24 38.125 C-27.93487019 38.12639795 -27.93487019 38.12639795 -30.875 40.4375 Z M15.125 41.4375 C14.54154524 44.48003508 14.54154524 44.48003508 15.125 47.4375 C17.04225994 49.76902308 17.04225994 49.76902308 20.375 49.8125 C24.79077972 49.37092203 26.81006986 48.3577956 30.125 45.4375 C31.08719702 42.80983611 31.08719702 42.80983611 31.125 40.4375 C26.05702171 37.05884781 19.66487748 37.18136486 15.125 41.4375 Z " fill="#000000" transform="translate(49.875,15.5625)"/>
<path d="M0 0 C6.30818278 -0.35706695 6.30818278 -0.35706695 8.9375 1 C10.67278693 4.26642246 10.17982715 7.34351452 10 11 C8.02 11.33 6.04 11.66 4 12 C3.32645501 10.56570999 2.66140299 9.12742943 2 7.6875 C1.62875 6.88699219 1.2575 6.08648437 0.875 5.26171875 C0 3 0 3 0 0 Z " fill="#000000" transform="translate(88,38)"/>
<path d="M0 0 C-0.47690204 1.62566606 -0.95659666 3.25051311 -1.4375 4.875 C-1.70433594 5.77992187 -1.97117187 6.68484375 -2.24609375 7.6171875 C-3 10 -3 10 -4 12 C-6.97 11.505 -6.97 11.505 -10 11 C-10.36010591 3.67784643 -10.36010591 3.67784643 -8.9375 1 C-5.97912322 -0.52690415 -3.26283401 -0.18468872 0 0 Z " fill="#000000" transform="translate(12,38)"/>
</svg>
