<?xml version="1.0" encoding="UTF-8"?>
<svg version="1.1" xmlns="http://www.w3.org/2000/svg" width="100" height="100">
<path d="M0 0 C10.06866931 7.25087772 17.72756886 16.79280068 20.3125 29.25 C21.70668558 45.91292143 19.18676434 58.15716957 8.640625 71.33984375 C2.22382219 78.48333577 -8.09918475 84.61508614 -17.80297852 85.42700195 C-34.86566428 85.88895149 -46.79126814 83.44661518 -59.8125 71.75 C-70.07212814 61.14084545 -72.17133125 48.37416494 -71.96484375 34.2578125 C-71.50503107 21.94581333 -64.87448062 11.59167312 -56.171875 3.17578125 C-39.79726859 -9.51711334 -17.57628553 -10.86641977 0 0 Z M-59.3046875 14.18359375 C-66.3717392 24.74424446 -67.93601941 35.84283836 -66.6875 48.25 C-64.05330406 58.63917796 -57.65044739 68.25211082 -48.6875 74.25 C-37.34051592 80.13833676 -25.71857745 82.53984696 -13.11328125 79.34375 C-0.29860322 74.224442 7.90519989 66.27791871 13.33203125 53.703125 C16.96257095 44.6195436 16.82304519 32.72551536 13.1875 23.625 C7.40354382 11.86212283 -0.61316566 4.32647893 -12.6875 -0.75 C-30.07906363 -5.7269926 -47.96402394 0.3331112 -59.3046875 14.18359375 Z " fill="#000000" transform="translate(75.6875,10.75)"/>
<path d="M0 0 C11.88 0 23.76 0 36 0 C36 1.32 36 2.64 36 4 C31.545 4.495 31.545 4.495 27 5 C27.495 5.7425 27.99 6.485 28.5 7.25 C30 10 30 10 30 14 C31.98 14 33.96 14 36 14 C36 15.32 36 16.64 36 18 C34.02 18 32.04 18 30 18 C29.9175 18.886875 29.835 19.77375 29.75 20.6875 C28.69284168 25.3566159 26.62278399 27.84288446 22.75390625 30.6015625 C19.58655388 32.20994853 17.21955324 32.49343114 13.6875 32.6875 C12.61886719 32.75324219 11.55023438 32.81898437 10.44921875 32.88671875 C9.23685547 32.94279297 9.23685547 32.94279297 8 33 C8.88042969 33.73605469 9.76085938 34.47210938 10.66796875 35.23046875 C11.84124844 36.21602369 13.01441977 37.20170766 14.1875 38.1875 C14.76564453 38.67025391 15.34378906 39.15300781 15.93945312 39.65039062 C19.46810562 42.6208382 22.78696853 45.69015402 26 49 C25.34 49.99 24.68 50.98 24 52 C19.02965659 50.47500827 15.80225729 47.51290874 12 44.125 C10.79229549 43.06438771 9.58397333 42.00447826 8.375 40.9453125 C7.80394531 40.43516602 7.23289062 39.92501953 6.64453125 39.39941406 C4.84548626 37.81876695 4.84548626 37.81876695 2.0625 35.9921875 C0 34 0 34 -0.3125 30.75 C-0.209375 29.8425 -0.10625 28.935 0 28 C0.92941406 27.96261719 1.85882813 27.92523438 2.81640625 27.88671875 C12.36843519 27.55563473 12.36843519 27.55563473 21 24 C22.32 22.02 23.64 20.04 25 18 C16.75 18 8.5 18 0 18 C0 16.68 0 15.36 0 14 C8.25 14 16.5 14 25 14 C20.69468004 7.44805241 20.69468004 7.44805241 14 5 C9.33827939 4.47919441 4.68609428 4.18848368 0 4 C0 2.68 0 1.36 0 0 Z " fill="#000000" transform="translate(34,28)"/>
</svg>
