<?xml version="1.0" encoding="UTF-8"?>
<svg version="1.1" xmlns="http://www.w3.org/2000/svg" width="96" height="96">
<path d="M0 0 C3.07927749 1.95491745 5.49694213 4.36323177 8 7 C8.78117187 7.75216797 8.78117187 7.75216797 9.578125 8.51953125 C12.64186992 11.71533414 13.67360431 14.53543175 14.25 18.77734375 C13.2760967 27.43595277 6.93441645 32.73655401 1.1015625 38.60546875 C0.10545126 39.61700542 -0.8904454 40.62875344 -1.88613892 41.64070129 C-3.97205071 43.75498583 -6.06624169 45.86066849 -8.16552734 47.96166992 C-10.83161282 50.63292105 -13.46655099 53.3327419 -16.0947628 56.04119396 C-18.14189 58.14075771 -20.20951601 60.2192197 -22.28303909 62.29268837 C-23.26226052 63.27840245 -24.23425992 64.27135405 -25.1981926 65.27202415 C-32.17901921 72.49567817 -38.21433633 75.82864397 -48 78 C-49.45842479 78.41634642 -50.91677195 78.83296502 -52.375 79.25 C-56.11536677 80.02386899 -59.20569139 80.15809619 -63 80 C-63.725309 72.82749988 -62.64065321 66.24999726 -60.9375 59.3125 C-60.75807861 58.51739014 -60.57865723 57.72228027 -60.39379883 56.90307617 C-57.67390177 46.52437987 -48.78853822 39.63826393 -41.41796875 32.28515625 C-40.07488396 30.94063637 -40.07488396 30.94063637 -38.70466614 29.56895447 C-36.82589224 27.68950398 -34.94616009 25.81107813 -33.06469727 23.93432617 C-30.65258227 21.52795724 -28.24505193 19.11705876 -25.83878613 16.70484257 C-23.53426977 14.39585567 -21.2259604 12.09066856 -18.91796875 9.78515625 C-18.05342575 8.91858902 -17.18888275 8.05202179 -16.29814148 7.15919495 C-15.50003555 6.36424118 -14.70192963 5.56928741 -13.87963867 4.75024414 C-13.17683273 4.0482338 -12.47402679 3.34622345 -11.74992371 2.62294006 C-8.30560541 -0.57144043 -4.50241599 -0.96536863 0 0 Z " fill="#060606" transform="translate(73,10)"/>
<path d="M0 0 C4.00374431 1.83692389 6.71957934 4.49117916 9.75 7.625 C10.25660156 8.140625 10.76320312 8.65625 11.28515625 9.1875 C12.52803902 10.45383339 13.76465276 11.7263144 15 13 C13.70991449 15.81996875 12.34045836 17.92821173 10.19360352 20.16040039 C9.62863663 20.75103775 9.06366974 21.34167511 8.48158264 21.95021057 C7.87019943 22.57636765 7.25881622 23.20252472 6.62890625 23.84765625 C5.99194321 24.50076279 5.35498016 25.15386932 4.69871521 25.82676697 C3.34750529 27.20560537 1.99318101 28.58139772 0.63598633 29.9543457 C-0.73933892 31.35266591 -2.10570126 32.75986206 -3.46264648 34.17602539 C-17.94599711 49.29100465 -17.94599711 49.29100465 -28 50 C-30.62638562 48.01681086 -32.2689569 46.72544458 -34 44 C-34.61461282 39.3246359 -34.10654362 34.8015882 -31.61813354 30.75015259 C-29.74519918 28.59294949 -27.77757431 26.65020908 -25.68359375 24.70703125 C-24.95253922 23.99012619 -24.22148468 23.27322113 -23.46827698 22.53459167 C-21.14724133 20.26915915 -18.79382588 18.04114438 -16.4375 15.8125 C-14.8499337 14.27513726 -13.26462069 12.73544402 -11.68164062 11.19335938 C-7.81341717 7.43488851 -3.91804846 3.70646434 0 0 Z " fill="#FDFDFD" transform="translate(52,29)"/>
<path d="M0 0 C3.5939018 1.14655236 5.43573173 2.97484415 8.10546875 5.62109375 C9.00007813 6.4821875 9.8946875 7.34328125 10.81640625 8.23046875 C12.73046875 10.87109375 12.73046875 10.87109375 12.6484375 13.5546875 C11.53035487 16.37606196 10.00119048 17.89336837 7.73046875 19.87109375 C3.65670844 18.26098848 0.96539806 15.33287104 -2.01953125 12.24609375 C-2.52613281 11.73046875 -3.03273438 11.21484375 -3.5546875 10.68359375 C-4.79757027 9.41726036 -6.03418401 8.14477935 -7.26953125 6.87109375 C-3.82086318 -0.21701977 -3.82086318 -0.21701977 0 0 Z " fill="#F4F4F4" transform="translate(69.26953125,14.12890625)"/>
<path d="M0 0 C4.07376031 1.61010527 6.76507069 4.53822271 9.75 7.625 C10.25660156 8.140625 10.76320313 8.65625 11.28515625 9.1875 C12.52803902 10.45383339 13.76465276 11.7263144 15 13 C14.34 14.32 13.68 15.64 13 17 C7.70987876 12.59156563 2.81191572 7.92440206 -2 3 C-1.34 2.01 -0.68 1.02 0 0 Z " fill="#F3F3F3" transform="translate(58,23)"/>
</svg>
