<?xml version="1.0" encoding="UTF-8"?>
<svg version="1.1" xmlns="http://www.w3.org/2000/svg" width="100" height="100">
<path d="M0 0 C27.06 0 54.12 0 82 0 C82 18.81 82 37.62 82 57 C60.0625 56.625 60.0625 56.625 53.25415039 56.39697266 C40.76737523 56.27717369 33.2934829 58.3254261 24.08351135 67.00186157 C22.87603754 68.18955365 21.68516826 69.39460636 20.51927185 70.62313843 C19 72 19 72 16 73 C16 67.72 16 62.44 16 57 C10.72 57 5.44 57 0 57 C0 38.19 0 19.38 0 0 Z M7 7 C7 21.19 7 35.38 7 50 C12.28 50 17.56 50 23 50 C23 52.64 23 55.28 23 58 C27.00333432 55.45170124 27.00333432 55.45170124 30.60449219 52.39526367 C34.4065027 50.18078242 38.25299963 50.51874818 42.578125 50.48828125 C43.39974121 50.47164429 44.22135742 50.45500732 45.06787109 50.43786621 C48.12832204 50.38016178 51.18920909 50.34783793 54.25 50.3125 C61.0975 50.209375 67.945 50.10625 75 50 C75 35.81 75 21.62 75 7 C52.56 7 30.12 7 7 7 Z " fill="#000000" transform="translate(9,15)"/>
<path d="M0 0 C1.875 1 1.875 1 3 3 C3.36095911 5.80173027 3.22716238 8.13775402 3 11 C1 13 1 13 -2.9375 13.3125 C-5.48435809 13.2339218 -6.75704973 13.13665953 -9 11.875 C-10.504106 9.05480125 -10.44912849 7.14389944 -10 4 C-7.21052575 -0.0769239 -4.82207542 -0.71818145 0 0 Z " fill="#000000" transform="translate(72,37)"/>
<path d="M0 0 C2.4375 2.125 2.4375 2.125 4 5 C3.85384044 8.72706873 3.65788293 10.34211707 1 13 C-6.1372549 13.67973856 -6.1372549 13.67973856 -9.0625 11.375 C-10.33302894 8.15632669 -9.98013473 6.29045231 -9 3 C-6.70390384 -0.62541498 -4.06537984 -0.66373548 0 0 Z " fill="#000000" transform="translate(53,37)"/>
<path d="M0 0 C2.375 1.625 2.375 1.625 4 4 C4.44912849 7.14389944 4.504106 9.05480125 3 11.875 C-0.33905554 13.75321874 -3.20998874 13.30079454 -7 13 C-9 11 -9 11 -9.3125 7.0625 C-9.2339218 4.51564191 -9.13665953 3.24295027 -7.875 1 C-5.05480125 -0.504106 -3.14389944 -0.44912849 0 0 Z " fill="#000000" transform="translate(34,37)"/>
</svg>
