<?xml version="1.0" encoding="UTF-8"?>
<svg version="1.1" xmlns="http://www.w3.org/2000/svg" width="96" height="96">
<path d="M0 0 C7.55408902 6.18061829 12.80632774 13.56796901 14.75 23.25 C15.77015621 34.50516601 13.36244953 43.62618442 6.3125 52.49609375 C5.796875 53.07488281 5.28125 53.65367188 4.75 54.25 C4.25024658 54.93304199 3.75049316 55.61608398 3.2355957 56.31982422 C-0.50270134 59.22277839 -3.96667502 58.8797952 -8.58203125 58.88671875 C-9.49200363 58.89766068 -10.40197601 58.9086026 -11.33952332 58.9198761 C-13.26348209 58.93572942 -15.18755383 58.94094105 -17.11157227 58.9362793 C-20.04310718 58.93749198 -22.96962323 58.99720424 -25.90039062 59.06054688 C-27.77342534 59.06869133 -29.64647903 59.07336119 -31.51953125 59.07421875 C-32.38955276 59.09779953 -33.25957428 59.12138031 -34.15596008 59.14567566 C-39.07093207 59.07212591 -41.66510915 58.38498432 -45.2355957 54.89648438 C-47.93375748 51.86620897 -49.89877099 48.74861884 -51.625 45.0625 C-52.10710938 44.05832031 -52.58921875 43.05414063 -53.0859375 42.01953125 C-56.43042082 34.0623545 -56.33514203 25.50240715 -53.5 17.375 C-49.64225372 8.02532324 -43.8031008 1.10507549 -34.5 -3.125 C-22.46177099 -8.10484294 -11.23505935 -6.04964734 0 0 Z M-42.25 11.25 C-47.25194053 18.72043066 -49.16537457 25.26385809 -48.25 34.25 C-46.60946917 40.55901284 -43.72117369 47.37044048 -38.25 51.25 C-35.17954939 52.02906956 -33.4790597 51.78817662 -30.25 51.25 C-29.59 50.26 -28.93 49.27 -28.25 48.25 C-25.49053386 47.94669661 -23.00504315 47.83165142 -20.25 47.875 C-19.51265625 47.86339844 -18.7753125 47.85179687 -18.015625 47.83984375 C-15.875 47.8515625 -15.875 47.8515625 -12.25 48.25 C-11.59 49.24 -10.93 50.23 -10.25 51.25 C-5.09062962 52.1270603 -5.09062962 52.1270603 -0.53125 50.03125 C4.74801538 44.32102418 7.88440194 37.01286543 8.25 29.25 C7.88410261 21.48077878 4.81116898 14.47232692 -0.47265625 8.78515625 C-7.05123096 3.10300271 -13.96591105 0.85917629 -22.52734375 0.97265625 C-30.20303467 1.75454155 -37.21262441 5.41792393 -42.25 11.25 Z " fill="#000000" transform="translate(68.25,21.75)"/>
<path d="M0 0 C0.66 0.66 1.32 1.32 2 2 C-9.77212806 21.14312618 -9.77212806 21.14312618 -15.25 23.25 C-18 23 -18 23 -19.9375 21.9375 C-21 20 -21 20 -21.125 17.3046875 C-19.37168969 12.15433847 -15.45912895 10.14216941 -11.0625 7.1875 C-10.22525391 6.60291016 -9.38800781 6.01832031 -8.52539062 5.41601562 C-2.58925336 1.29462668 -2.58925336 1.29462668 0 0 Z " fill="#000000" transform="translate(64,33)"/>
<path d="M0 0 C2.625 0.375 2.625 0.375 5 1 C5.042721 2.66611905 5.04063832 4.33382885 5 6 C4 7 4 7 1.4375 7.0625 C0.2309375 7.0315625 0.2309375 7.0315625 -1 7 C-1.625 4.625 -1.625 4.625 -2 2 C-1.34 1.34 -0.68 0.68 0 0 Z " fill="#000000" transform="translate(60,61)"/>
<path d="M0 0 C1.125 3.75 1.125 3.75 0 6 C-1.66611905 6.042721 -3.33382885 6.04063832 -5 6 C-6 5 -6 5 -6.0625 2.4375 C-6.041875 1.633125 -6.02125 0.82875 -6 0 C-3.50907189 -1.24546405 -2.58919267 -0.7767578 0 0 Z " fill="#000000" transform="translate(37,62)"/>
<path d="M0 0 C1.2065625 0.0309375 1.2065625 0.0309375 2.4375 0.0625 C3.0625 2.4375 3.0625 2.4375 3.4375 5.0625 C2.7775 5.7225 2.1175 6.3825 1.4375 7.0625 C-1.1875 6.6875 -1.1875 6.6875 -3.5625 6.0625 C-3.605221 4.39638095 -3.60313832 2.72867115 -3.5625 1.0625 C-2.5625 0.0625 -2.5625 0.0625 0 0 Z " fill="#000000" transform="translate(34.5625,33.9375)"/>
<path d="M0 0 C1.2065625 0.0309375 1.2065625 0.0309375 2.4375 0.0625 C2.81968767 1.71864657 3.15145102 3.38707024 3.4375 5.0625 C2.4375 6.0625 2.4375 6.0625 -0.125 6.125 C-1.3315625 6.0940625 -1.3315625 6.0940625 -2.5625 6.0625 C-2.94468767 4.40635343 -3.27645102 2.73792976 -3.5625 1.0625 C-2.5625 0.0625 -2.5625 0.0625 0 0 Z " fill="#000000" transform="translate(67.5625,47.9375)"/>
<path d="M0 0 C1.2065625 0.0309375 1.2065625 0.0309375 2.4375 0.0625 C2.81968767 1.71864657 3.15145102 3.38707024 3.4375 5.0625 C2.4375 6.0625 2.4375 6.0625 -0.125 6.125 C-1.3315625 6.0940625 -1.3315625 6.0940625 -2.5625 6.0625 C-2.94468767 4.40635343 -3.27645102 2.73792976 -3.5625 1.0625 C-2.5625 0.0625 -2.5625 0.0625 0 0 Z " fill="#000000" transform="translate(28.5625,47.9375)"/>
<path d="M0 0 C1.67542976 0.28604898 3.34385343 0.61781233 5 1 C5 2.65 5 4.3 5 6 C3.34385343 6.38218767 1.67542976 6.71395102 0 7 C-1 6 -1 6 -1.125 3.5 C-1 1 -1 1 0 0 Z " fill="#000000" transform="translate(46,28)"/>
</svg>
