<?xml version="1.0" encoding="UTF-8"?>
<svg version="1.1" xmlns="http://www.w3.org/2000/svg" width="100" height="100">
<path d="M0 0 C-1 5 -1 5 -17 21 C12.205 21.495 12.205 21.495 42 22 C42 23.32 42 24.64 42 26 C22.53 26.33 3.06 26.66 -17 27 C-11.06 32.94 -5.12 38.88 1 45 C0.67 45.99 0.34 46.98 0 48 C-4.88118631 47.56534748 -6.93725509 45.53204888 -10.30078125 42.08984375 C-10.7820195 41.60294571 -11.26325775 41.11604767 -11.75907898 40.61439514 C-13.28657021 39.06460092 -14.79952748 37.50145808 -16.3125 35.9375 C-17.3486791 34.88124806 -18.3857791 33.82589867 -19.42382812 32.77148438 C-21.95996895 30.1913578 -24.48326459 27.5990748 -27 25 C-24.714592 19.56094916 -20.20202239 15.83004205 -16.09667969 11.72607422 C-14.6261729 10.2511764 -13.17241338 8.76100952 -11.71875 7.26953125 C-10.79320313 6.34011719 -9.86765625 5.41070312 -8.9140625 4.453125 C-7.6448999 3.17163574 -7.6448999 3.17163574 -6.35009766 1.86425781 C-4 0 -4 0 0 0 Z " fill="#000000" transform="translate(42,26)"/>
</svg>
